<svg width="73" height="58" viewBox="0 0 73 58" fill="none" xmlns="http://www.w3.org/2000/svg">
<mask id="mask0_2_691" style="mask-type:alpha" maskUnits="userSpaceOnUse" x="0" y="0" width="73" height="58">
<path fill-rule="evenodd" clip-rule="evenodd" d="M29.4938 0.211406C22.123 1.56164 16.2554 6.87162 14.1763 14.0732C13.7969 15.3873 13.7922 15.3943 13.1838 15.5181C12.0868 15.7413 10.5415 16.2987 9.2514 16.9368C3.58179 19.7412 0 25.5428 0 31.9217C0 36.4483 1.53605 40.316 4.62554 43.5685C7.98055 47.1003 12.2128 48.844 17.4353 48.8458L19.2935 48.8464V46.3376V43.8288L16.9609 43.745C15.1628 43.6805 14.3746 43.5808 13.5213 43.3101C9.67854 42.0914 6.86533 39.3687 5.59733 35.6414C5.25163 34.6249 5.15295 34.001 5.0957 32.4664C5.00856 30.1386 5.3375 28.5952 6.35674 26.5482C6.90043 25.4562 7.30892 24.921 8.53406 23.6959C9.75998 22.47 10.2936 22.0627 11.3863 21.5192C12.7445 20.8438 14.8217 20.2224 15.7222 20.2224C16.8543 20.2224 17.7992 19.6925 18.2659 18.7958C18.3801 18.5765 18.5876 17.7362 18.7269 16.9284C19.667 11.4809 23.614 7.09698 29.0193 5.49672C30.6215 5.02229 33.8217 4.91191 35.5951 5.26994C40.2357 6.20647 43.8295 9.11157 46.0712 13.7385C46.3871 14.3909 46.8359 15.0606 47.0684 15.2268C47.6556 15.6468 48.7297 15.7118 50.1644 15.4145C51.7218 15.0916 54.3854 15.0908 55.9499 15.4125C60.6207 16.3732 64.634 19.7396 66.3978 24.176C67.5915 27.1782 67.7046 30.7167 66.7064 33.8228C65.497 37.5858 62.7506 40.7178 59.1906 42.3937C57.1675 43.346 55.7949 43.6462 53.0176 43.7436L50.6059 43.8282V46.3373V48.8464L52.4641 48.8415C57.503 48.8282 61.3404 47.5509 65.0991 44.6353C69.7487 41.029 72.4297 35.4524 72.4297 29.3876C72.4297 24.1127 70.4866 19.4956 66.6739 15.7106C64.4021 13.4551 62.1238 12.0394 59.1784 11.0526C56.9396 10.3025 55.2878 10.0753 52.4788 10.1311L50.0026 10.1803L49.0188 8.67794C46.1524 4.30068 41.3208 1.12595 36.154 0.224848C34.4679 -0.0691405 31.0629 -0.0760987 29.4938 0.211406ZM31.825 31.2944C30.2943 31.6954 29.4185 32.098 28.2272 32.9481C25.3849 34.9763 23.5634 38.4679 23.5634 41.8881C23.5634 45.1586 25.4477 48.9022 27.9757 50.6543L28.624 51.1034V52.7143C28.624 54.6218 28.87 55.481 29.6913 56.4403C30.0079 56.8102 30.6267 57.2805 31.0663 57.4851C31.8009 57.8272 32.0717 57.8576 34.3962 57.8582C35.7879 57.8585 37.1916 57.7851 37.5156 57.6952C38.4531 57.4349 39.4011 56.6051 39.9197 55.5911C40.3355 54.7782 40.3935 54.4852 40.4545 52.8877L40.5232 51.0961L41.3177 50.4903C42.848 49.3232 44.2615 47.3164 44.9041 45.3984C47.2919 38.2716 41.9956 30.9419 34.4895 30.9849C33.5332 30.9904 32.5489 31.1047 31.825 31.2944ZM37.0562 36.5694C39.3727 37.7028 40.7813 40.3705 40.3358 42.7806C39.9706 44.756 38.9645 46.1344 37.109 47.2015C35.612 48.0625 35.4241 48.4733 35.4241 50.8842V52.8H34.5669H33.7097L33.6575 50.755C33.6 48.4934 33.4685 48.143 32.4378 47.5022C30.1997 46.1108 29.447 45.2825 28.9376 43.6506C28.5406 42.3786 28.5406 41.3975 28.9376 40.1256C29.4882 38.3613 30.9938 36.8264 32.714 36.2756C33.9093 35.8927 35.9565 36.0314 37.0562 36.5694Z" fill="#4747EC"/>
</mask>
<g mask="url(#mask0_2_691)">
<rect x="-1" width="75" height="58" fill="url(#paint0_linear_2_691)"/>
</g>
<defs>
<linearGradient id="paint0_linear_2_691" x1="-1" y1="0" x2="98.5169" y2="85.4292" gradientUnits="userSpaceOnUse">
<stop stop-color="#4747EC"/>
<stop offset="1" stop-color="#00D89C"/>
</linearGradient>
</defs>
</svg>
