<svg width="24" height="24" viewBox="0 0 24 24" fill="none" xmlns="http://www.w3.org/2000/svg">
<path d="M4.64473 4.79889H20.5447C22.0447 4.79889 22.8007 5.50689 22.8007 6.94689V17.0509C22.8007 18.4789 22.0447 19.1989 20.5447 19.1989H4.64473C3.14473 19.1989 2.38873 18.4789 2.38873 17.0509V6.94689C2.38873 5.50689 3.14473 4.79889 4.64473 4.79889ZM12.5887 15.1189L20.6767 8.48289C20.9647 8.24289 21.1927 7.69089 20.8327 7.19889C20.4847 6.70689 19.8487 6.69489 19.4287 6.99489L12.5887 11.6269L5.76073 6.99489C5.34073 6.69489 4.70473 6.70689 4.35673 7.19889C3.99673 7.69089 4.22473 8.24289 4.51273 8.48289L12.5887 15.1189Z" fill="#05142D"/>
</svg>
