<svg width="24" height="24" viewBox="0 0 24 24" fill="none" xmlns="http://www.w3.org/2000/svg">
<g clip-path="url(#clip0_2_449)">
<path d="M12.0043 7.9572C9.73286 7.9572 7.90072 9.76071 7.90072 11.9967C7.90072 14.2326 9.73286 16.0361 12.0043 16.0361C14.2757 16.0361 16.1079 14.2326 16.1079 11.9967C16.1079 9.76071 14.2757 7.9572 12.0043 7.9572ZM12.0043 14.6228C10.5364 14.6228 9.33644 13.4451 9.33644 11.9967C9.33644 10.5482 10.5329 9.37048 12.0043 9.37048C13.4757 9.37048 14.6721 10.5482 14.6721 11.9967C14.6721 13.4451 13.4721 14.6228 12.0043 14.6228ZM17.2329 7.79197C17.2329 8.31579 16.8043 8.73415 16.2757 8.73415C15.7436 8.73415 15.3186 8.31228 15.3186 7.79197C15.3186 7.27165 15.7471 6.84978 16.2757 6.84978C16.8043 6.84978 17.2329 7.27165 17.2329 7.79197ZM19.9507 8.74821C19.89 7.48611 19.5971 6.36814 18.6579 5.44705C17.7221 4.52595 16.5864 4.23767 15.3043 4.17439C13.9829 4.10056 10.0221 4.10056 8.70072 4.17439C7.42215 4.23416 6.28644 4.52244 5.34715 5.44353C4.40787 6.36462 4.11858 7.48259 4.0543 8.7447C3.9793 10.0455 3.9793 13.9443 4.0543 15.2451C4.11501 16.5072 4.40787 17.6252 5.34715 18.5463C6.28644 19.4673 7.41858 19.7556 8.70072 19.8189C10.0221 19.8927 13.9829 19.8927 15.3043 19.8189C16.5864 19.7591 17.7221 19.4709 18.6579 18.5463C19.5936 17.6252 19.8864 16.5072 19.9507 15.2451C20.0257 13.9443 20.0257 10.049 19.9507 8.74821ZM18.2436 16.6408C17.965 17.3299 17.4257 17.8607 16.7221 18.1384C15.6686 18.5498 13.1686 18.4548 12.0043 18.4548C10.84 18.4548 8.33644 18.5463 7.28644 18.1384C6.58644 17.8642 6.04715 17.3334 5.76501 16.6408C5.34715 15.6037 5.44358 13.1427 5.44358 11.9967C5.44358 10.8506 5.35072 8.38611 5.76501 7.35251C6.04358 6.66345 6.58287 6.13259 7.28644 5.85486C8.34001 5.44353 10.84 5.53845 12.0043 5.53845C13.1686 5.53845 15.6721 5.44705 16.7221 5.85486C17.4221 6.12908 17.9614 6.65993 18.2436 7.35251C18.6614 8.38962 18.565 10.8506 18.565 11.9967C18.565 13.1427 18.6614 15.6072 18.2436 16.6408Z" fill="#05142D"/>
</g>
<defs>
<clipPath id="clip0_2_449">
<rect width="16" height="18" fill="white" transform="translate(4 2.99988)"/>
</clipPath>
</defs>
</svg>
