<svg width="14" height="14" fill="none" xmlns="http://www.w3.org/2000/svg"><path d="M12 6.008c0 .65-.236 1.418-.646 2.23-.406.803-.964 1.614-1.563 2.339a13.377 13.377 0 0 1-1.768 1.793c-.27.221-.51.388-.704.497-.097.054-.176.09-.236.11A.404.404 0 0 1 7 13l-.004-.001a1.156 1.156 0 0 1-.284-.13 5.354 5.354 0 0 1-.696-.498 14.018 14.018 0 0 1-1.775-1.796c-.605-.726-1.172-1.537-1.585-2.34C2.241 7.422 2 6.656 2 6.007A5.004 5.004 0 0 1 7 1c2.76 0 5 2.242 5 5.008Z" stroke="#8F8F9B"></path><circle cx="7" cy="6" r="2" stroke="#8F8F9B"></circle></svg>