<svg width="33" height="33" viewBox="0 0 33 33" fill="none" xmlns="http://www.w3.org/2000/svg">
<path d="M27.5 13.75C27.5 22 16.5 30.25 16.5 30.25C16.5 30.25 5.5 22 5.5 13.75C5.5 10.8326 6.65893 8.03473 8.72183 5.97183C10.7847 3.90893 13.5826 2.75 16.5 2.75C19.4174 2.75 22.2153 3.90893 24.2782 5.97183C26.3411 8.03473 27.5 10.8326 27.5 13.75V13.75Z" stroke="white" stroke-width="2.75" stroke-linecap="round" stroke-linejoin="round"/>
<path d="M16.5 17.875C18.7782 17.875 20.625 16.0282 20.625 13.75C20.625 11.4718 18.7782 9.625 16.5 9.625C14.2218 9.625 12.375 11.4718 12.375 13.75C12.375 16.0282 14.2218 17.875 16.5 17.875Z" stroke="white" stroke-width="2.75" stroke-linecap="round" stroke-linejoin="round"/>
</svg>
