<svg width="36" height="36" viewBox="0 0 36 36" fill="none" xmlns="http://www.w3.org/2000/svg">
<path d="M32.3891 25.577V29.9937C32.3908 30.4037 32.3068 30.8096 32.1425 31.1852C31.9783 31.5609 31.7373 31.8981 31.4352 32.1753C31.1331 32.4525 30.7764 32.6635 30.388 32.7949C29.9996 32.9263 29.588 32.975 29.1797 32.9381C24.6494 32.4459 20.2977 30.8979 16.4744 28.4184C12.9172 26.1581 9.9014 23.1422 7.64105 19.5851C5.15296 15.7444 3.60457 11.3715 3.12132 6.82092C3.08453 6.4138 3.13292 6.00348 3.26339 5.61608C3.39387 5.22869 3.60358 4.87271 3.87917 4.5708C4.15477 4.2689 4.4902 4.02768 4.86413 3.86252C5.23805 3.69735 5.64227 3.61186 6.05105 3.61147H10.4677C11.1822 3.60444 11.8749 3.85745 12.4166 4.32334C12.9583 4.78923 13.3122 5.43621 13.4122 6.14369C13.5986 7.55712 13.9443 8.94493 14.4427 10.2806C14.6408 10.8076 14.6837 11.3803 14.5662 11.9308C14.4488 12.4814 14.176 12.9867 13.7802 13.387L11.9105 15.2567C14.0063 18.9425 17.058 21.9943 20.7438 24.0901L22.6135 22.2204C23.0138 21.8245 23.5192 21.5517 24.0698 21.4343C24.6203 21.3169 25.193 21.3598 25.7199 21.5579C27.0556 22.0563 28.4434 22.402 29.8569 22.5884C30.572 22.6893 31.2252 23.0495 31.6921 23.6006C32.1589 24.1516 32.407 24.855 32.3891 25.577Z" stroke="white" stroke-width="2.94444" stroke-linecap="round" stroke-linejoin="round"/>
</svg>
