<svg width="24" height="24" viewBox="0 0 24 24" fill="none" xmlns="http://www.w3.org/2000/svg">
<g clip-path="url(#clip0_2_443)">
<path d="M11.136 21.5249C9.23287 19.1425 5.00006 13.3682 5.00006 10.1249C5.00006 6.1898 8.13402 2.99988 12.0001 2.99988C15.8646 2.99988 19.0001 6.1898 19.0001 10.1249C19.0001 13.3682 14.7344 19.1425 12.8641 21.5249C12.4157 22.0927 11.5844 22.0927 11.136 21.5249ZM12.0001 12.4999C13.287 12.4999 14.3334 11.4348 14.3334 10.1249C14.3334 8.81492 13.287 7.74988 12.0001 7.74988C10.7131 7.74988 9.66673 8.81492 9.66673 10.1249C9.66673 11.4348 10.7131 12.4999 12.0001 12.4999Z" fill="#05142D"/>
</g>
<defs>
<clipPath id="clip0_2_443">
<rect width="14" height="19" fill="white" transform="translate(5.00006 2.99988)"/>
</clipPath>
</defs>
</svg>
