<svg width="24" height="24" viewBox="0 0 24 24" fill="none" xmlns="http://www.w3.org/2000/svg">
<g clip-path="url(#clip0_2_457)">
<path d="M21.0007 6.70441C20.3267 6.98888 19.6118 7.17561 18.8797 7.25838C19.6422 6.82297 20.2277 6.13349 20.5034 5.31198C19.7785 5.72179 18.9854 6.01052 18.1584 6.16571C17.4848 5.48199 16.5251 5.05469 15.4628 5.05469C13.4234 5.05469 11.7698 6.62992 11.7698 8.57277C11.7698 8.84855 11.8025 9.11703 11.8654 9.37459C8.79631 9.22782 6.07522 7.82722 4.25377 5.69869C3.93596 6.21829 3.75385 6.82271 3.75385 7.46738C3.75385 8.68799 4.40586 9.76478 5.3967 10.3957C4.81026 10.3782 4.23672 10.2273 3.72397 9.95562C3.72376 9.97036 3.72376 9.9851 3.72376 9.9999C3.72376 11.7045 4.99669 13.1265 6.68602 13.4497C6.14221 13.5906 5.5718 13.6112 5.01835 13.5099C5.48825 14.9077 6.8521 15.9248 8.46802 15.9532C7.20415 16.8968 5.61179 17.4593 3.88168 17.4593C3.58355 17.4593 3.28965 17.4426 3.00073 17.4101C4.63501 18.4083 6.57612 18.9908 8.66159 18.9908C15.4543 18.9908 19.1687 13.6298 19.1687 8.98078C19.1687 8.82819 19.1652 8.67647 19.158 8.52561C19.881 8.0277 20.505 7.41098 21.0007 6.70441Z" fill="#05142D"/>
</g>
<defs>
<clipPath id="clip0_2_457">
<rect width="18" height="14" fill="white" transform="translate(3.00085 5)"/>
</clipPath>
</defs>
</svg>
